<mxfile host="app.diagrams.net" agent="Mozilla/5.0 (Windows NT 10.0; Win64; x64) AppleWebKit/537.36 (KHTML, like Gecko) Chrome/116.0.0.0 Safari/537.36" version="26.2.8">
  <diagram name="Page-1" id="bwv17ZYUzvi8o3EPEBdm">
    <mxGraphModel dx="1044" dy="579" grid="1" gridSize="10" guides="1" tooltips="1" connect="1" arrows="1" fold="1" page="1" pageScale="1" pageWidth="827" pageHeight="1169" math="0" shadow="0">
      <root>
        <mxCell id="0" />
        <mxCell id="1" parent="0" />
        <mxCell id="75sYB-ic7A-wQwIq8ZGx-1" value="Spiel" style="rounded=0;whiteSpace=wrap;html=1;" parent="1" vertex="1">
          <mxGeometry x="210" y="250" width="120" height="60" as="geometry" />
        </mxCell>
        <mxCell id="75sYB-ic7A-wQwIq8ZGx-2" value="Spieler" style="rounded=0;whiteSpace=wrap;html=1;" parent="1" vertex="1">
          <mxGeometry x="210" y="120" width="120" height="60" as="geometry" />
        </mxCell>
        <mxCell id="75sYB-ic7A-wQwIq8ZGx-3" value="Genre" style="rounded=0;whiteSpace=wrap;html=1;" parent="1" vertex="1">
          <mxGeometry x="414" y="250" width="120" height="60" as="geometry" />
        </mxCell>
        <mxCell id="75sYB-ic7A-wQwIq8ZGx-4" value="Platform" style="rounded=0;whiteSpace=wrap;html=1;" parent="1" vertex="1">
          <mxGeometry x="410" y="120" width="120" height="60" as="geometry" />
        </mxCell>
        <mxCell id="C6OYn42gJUD_8Ieiu1CR-5" value="" style="endArrow=none;html=1;rounded=0;exitX=1;exitY=0.5;exitDx=0;exitDy=0;entryX=0;entryY=0.5;entryDx=0;entryDy=0;" edge="1" parent="1" source="75sYB-ic7A-wQwIq8ZGx-1" target="75sYB-ic7A-wQwIq8ZGx-3">
          <mxGeometry width="50" height="50" relative="1" as="geometry">
            <mxPoint x="390" y="330" as="sourcePoint" />
            <mxPoint x="440" y="280" as="targetPoint" />
          </mxGeometry>
        </mxCell>
        <mxCell id="C6OYn42gJUD_8Ieiu1CR-7" value="m" style="edgeLabel;html=1;align=center;verticalAlign=middle;resizable=0;points=[];" vertex="1" connectable="0" parent="C6OYn42gJUD_8Ieiu1CR-5">
          <mxGeometry x="-0.6" y="4" relative="1" as="geometry">
            <mxPoint as="offset" />
          </mxGeometry>
        </mxCell>
        <mxCell id="C6OYn42gJUD_8Ieiu1CR-8" value="c" style="edgeLabel;html=1;align=center;verticalAlign=middle;resizable=0;points=[];" vertex="1" connectable="0" parent="C6OYn42gJUD_8Ieiu1CR-5">
          <mxGeometry x="0.5905" y="1" relative="1" as="geometry">
            <mxPoint as="offset" />
          </mxGeometry>
        </mxCell>
        <mxCell id="C6OYn42gJUD_8Ieiu1CR-9" value="" style="endArrow=none;html=1;rounded=0;exitX=0.5;exitY=0;exitDx=0;exitDy=0;entryX=0.5;entryY=1;entryDx=0;entryDy=0;" edge="1" parent="1" source="75sYB-ic7A-wQwIq8ZGx-3" target="75sYB-ic7A-wQwIq8ZGx-4">
          <mxGeometry width="50" height="50" relative="1" as="geometry">
            <mxPoint x="390" y="330" as="sourcePoint" />
            <mxPoint x="470" y="190" as="targetPoint" />
          </mxGeometry>
        </mxCell>
        <mxCell id="C6OYn42gJUD_8Ieiu1CR-10" value="m" style="edgeLabel;html=1;align=center;verticalAlign=middle;resizable=0;points=[];" vertex="1" connectable="0" parent="C6OYn42gJUD_8Ieiu1CR-9">
          <mxGeometry x="-0.426" y="-2" relative="1" as="geometry">
            <mxPoint as="offset" />
          </mxGeometry>
        </mxCell>
        <mxCell id="C6OYn42gJUD_8Ieiu1CR-11" value="m" style="edgeLabel;html=1;align=center;verticalAlign=middle;resizable=0;points=[];" vertex="1" connectable="0" parent="C6OYn42gJUD_8Ieiu1CR-9">
          <mxGeometry x="0.5487" relative="1" as="geometry">
            <mxPoint as="offset" />
          </mxGeometry>
        </mxCell>
        <mxCell id="C6OYn42gJUD_8Ieiu1CR-12" value="" style="endArrow=none;html=1;rounded=0;exitX=0.5;exitY=0;exitDx=0;exitDy=0;entryX=0.5;entryY=1;entryDx=0;entryDy=0;" edge="1" parent="1" source="75sYB-ic7A-wQwIq8ZGx-1" target="75sYB-ic7A-wQwIq8ZGx-2">
          <mxGeometry width="50" height="50" relative="1" as="geometry">
            <mxPoint x="390" y="330" as="sourcePoint" />
            <mxPoint x="440" y="280" as="targetPoint" />
          </mxGeometry>
        </mxCell>
        <mxCell id="C6OYn42gJUD_8Ieiu1CR-13" value="mc" style="edgeLabel;html=1;align=center;verticalAlign=middle;resizable=0;points=[];" vertex="1" connectable="0" parent="C6OYn42gJUD_8Ieiu1CR-12">
          <mxGeometry x="0.5486" relative="1" as="geometry">
            <mxPoint as="offset" />
          </mxGeometry>
        </mxCell>
        <mxCell id="C6OYn42gJUD_8Ieiu1CR-14" value="mc" style="edgeLabel;html=1;align=center;verticalAlign=middle;resizable=0;points=[];" vertex="1" connectable="0" parent="C6OYn42gJUD_8Ieiu1CR-12">
          <mxGeometry x="-0.5371" y="-3" relative="1" as="geometry">
            <mxPoint as="offset" />
          </mxGeometry>
        </mxCell>
        <mxCell id="C6OYn42gJUD_8Ieiu1CR-15" value="" style="endArrow=none;html=1;rounded=0;exitX=1;exitY=0;exitDx=0;exitDy=0;entryX=0;entryY=1;entryDx=0;entryDy=0;" edge="1" parent="1" source="75sYB-ic7A-wQwIq8ZGx-1" target="75sYB-ic7A-wQwIq8ZGx-4">
          <mxGeometry width="50" height="50" relative="1" as="geometry">
            <mxPoint x="390" y="330" as="sourcePoint" />
            <mxPoint x="440" y="280" as="targetPoint" />
          </mxGeometry>
        </mxCell>
        <mxCell id="C6OYn42gJUD_8Ieiu1CR-16" value="m" style="edgeLabel;html=1;align=center;verticalAlign=middle;resizable=0;points=[];" vertex="1" connectable="0" parent="C6OYn42gJUD_8Ieiu1CR-15">
          <mxGeometry x="-0.68" relative="1" as="geometry">
            <mxPoint as="offset" />
          </mxGeometry>
        </mxCell>
        <mxCell id="C6OYn42gJUD_8Ieiu1CR-17" value="mc" style="edgeLabel;html=1;align=center;verticalAlign=middle;resizable=0;points=[];" vertex="1" connectable="0" parent="C6OYn42gJUD_8Ieiu1CR-15">
          <mxGeometry x="0.6811" y="-1" relative="1" as="geometry">
            <mxPoint as="offset" />
          </mxGeometry>
        </mxCell>
        <mxCell id="C6OYn42gJUD_8Ieiu1CR-18" value="" style="endArrow=none;html=1;rounded=0;exitX=1;exitY=0.5;exitDx=0;exitDy=0;entryX=0;entryY=0.5;entryDx=0;entryDy=0;" edge="1" parent="1" source="75sYB-ic7A-wQwIq8ZGx-2" target="75sYB-ic7A-wQwIq8ZGx-4">
          <mxGeometry width="50" height="50" relative="1" as="geometry">
            <mxPoint x="390" y="330" as="sourcePoint" />
            <mxPoint x="440" y="280" as="targetPoint" />
          </mxGeometry>
        </mxCell>
        <mxCell id="C6OYn42gJUD_8Ieiu1CR-19" value="mc" style="edgeLabel;html=1;align=center;verticalAlign=middle;resizable=0;points=[];" vertex="1" connectable="0" parent="C6OYn42gJUD_8Ieiu1CR-18">
          <mxGeometry x="0.52" y="1" relative="1" as="geometry">
            <mxPoint as="offset" />
          </mxGeometry>
        </mxCell>
        <mxCell id="C6OYn42gJUD_8Ieiu1CR-20" value="mc" style="edgeLabel;html=1;align=center;verticalAlign=middle;resizable=0;points=[];" vertex="1" connectable="0" parent="C6OYn42gJUD_8Ieiu1CR-18">
          <mxGeometry x="-0.53" y="-1" relative="1" as="geometry">
            <mxPoint as="offset" />
          </mxGeometry>
        </mxCell>
      </root>
    </mxGraphModel>
  </diagram>
</mxfile>
